{"title":"21 Grams-720p MP4 AAC x264 BRRip 2003-CC","uid":7813446,"size":3348087146,"categoryP":"video","categoryS":"hd___movies","magnet":"?xt=urn:btih:3e9b2b35f7c4e1e05e6d55ae0190be2900e70b59&amp;dn=21+Grams-720p+MP4+AAC+x264+BRRip+2003-CC&amp;tr=udp%3A%2F%2Ftracker.openbittorrent.com%3A80&amp;tr=udp%3A%2F%2Fopen.demonii.com%3A1337&amp;tr=udp%3A%2F%2Ftracker.coppersurfer.tk%3A6969&amp;tr=udp%3A%2F%2Fexodus.desync.com%3A6969","seeders":1,"leechers":0,"uploader":"Caveman44","files":-1,"time":1352589030,"description":" &lt;a href=&quot;http://www.imdb.com/title/tt0315733/&quot; rel=&quot;nofollow&quot; target=&quot;_NEW&quot;&gt;http://www.imdb.com/title/tt0315733/&lt;/a&gt;\n\nSource: 21.Grams.2003.Bluray.UK.720p.DTS.x264-CHD Thanks!\n\nSubs: Arabic, Croatian, Czech, Danish, Dutch, English, Farsi-Persian, French, Hebrew, Hungarian, Indonesian, Italian, Polish, Russian, Slovenian, Spanish.\n\nSample and Screens included.\n\nGeneral\nComplete name                            : 21 Grams-720p MP4 AAC x264 BRRip 2003-CC.mp4\nFormat                                   : MPEG-4\nFormat profile                           : Base Media\nCodec ID                                 : isom\nFile size                                : 3.08 GiB\nDuration                                 : 2h 4mn\nOverall bit rate mode                    : Variable\nOverall bit rate                         : 3 543 Kbps\nEncoded date                             : UTC 2012-11-05 15:00:43 \n\nVideo\nID                                       : 1\nFormat                                   : AVC\nFormat/Info                              : Advanced Video Codec\nFormat profile                           : &lt;a class=&quot;__cf_email__&quot; href=&quot;/cdn-cgi/l/email-protection&quot; data-cfemail=&quot;3d75545a557d7109130c&quot;&gt;[email&amp;#160;protected]&lt;/a&gt;&lt;script cf-hash='f9e31' type=&quot;text/javascript&quot;&gt;\n/* &lt;![CDATA[ */!function(){try{var t=&quot;currentScript&quot;in document?document.currentScript:function(){for(var t=document.getElementsByTagName(&quot;script&quot;),e=t.length;e--;)if(t[e].getAttribute(&quot;cf-hash&quot;))return t[e]}();if(t&amp;&amp;t.previousSibling){var e,r,n,i,c=t.previousSibling,a=c.getAttribute(&quot;data-cfemail&quot;);if(a){for(e=&quot;&quot;,r=parseInt(a.substr(0,2),16),n=2;a.length-n;n+=2)i=parseInt(a.substr(n,2),16)^r,e+=String.fromCharCode(i);e=document.createTextNode(e),c.parentNode.replaceChild(e,c)}}}catch(u){}}();/* ]]&gt; */&lt;/script&gt;\nFormat settings, CABAC                   : Yes\nFormat settings, ReFrames                : 5 frames\nCodec ID                                 : avc1\nCodec ID/Info                            : Advanced Video Coding\nDuration                                 : 2h 4mn\nBit rate                                 : 3 283 Kbps\nMaximum bit rate                         : 19.9 Mbps\nWidth                                    : 1 280 pixels\nHeight                                   : 688 pixels\nDisplay aspect ratio                     : 1.85:1\nOriginal display aspect ratio            : 1.85:1\nFrame rate mode                          : Variable\nFrame rate                               : 23.976 fps\nMinimum frame rate                       : 19.048 fps\nMaximum frame rate                       : 24.390 fps\nColor space                              : YUV\nChroma subsampling                       : 4:2:0\nBit depth                                : 8 bits\nScan type                                : Progressive\nBits/(Pixel*Frame)                       : 0.155\nStream size                              : 2.75 GiB (89%)\nWriting library                          : x264 core 112\n\nAudio\nID                                       : 2\nFormat                                   : AAC\nFormat/Info                              : Advanced Audio Codec\nFormat profile                           : LC\nCodec ID                                 : 40\nDuration                                 : 2h 4mn\nBit rate mode                            : Variable\nBit rate                                 : 384 Kbps\nMaximum bit rate                         : 621 Kbps\nChannel(s)                               : 6 channels\nChannel positions                        : Front: L C R, Side: L R, LFE\nSampling rate                            : 48.0 KHz\nCompression mode                         : Lossy\nDelay relative to video                  : 83ms\nStream size                              : 340 MiB (11%)\nLanguage                                 : English\n\nEnjoy...\n\nRequested by Alorati \n\nComing soon: The Horse Whisperer, Air America, The Interpreter, Les Diaboliques and more...","torrent":{"xt":"urn:btih:3e9b2b35f7c4e1e05e6d55ae0190be2900e70b59","amp;dn":"21+Grams-720p+MP4+AAC+x264+BRRip+2003-CC","amp;tr":["udp%3A%2F%2Ftracker.openbittorrent.com%3A80","udp%3A%2F%2Fopen.demonii.com%3A1337","udp%3A%2F%2Ftracker.coppersurfer.tk%3A6969","udp%3A%2F%2Fexodus.desync.com%3A6969"],"infoHash":"3e9b2b35f7c4e1e05e6d55ae0190be2900e70b59","infoHashBuffer":{"type":"Buffer","data":[62,155,43,53,247,196,225,224,94,109,85,174,1,144,190,41,0,231,11,89]},"announce":[],"urlList":[]}}